<svg width="284" height="284" viewBox="0 0 284 284" fill="none" xmlns="http://www.w3.org/2000/svg">
<path d="M224.833 219.982C221.695 219.982 218.685 221.228 216.466 223.448C214.247 225.667 213 228.677 213 231.815V257.375C213 258.16 212.688 258.912 212.134 259.467C211.579 260.022 210.826 260.333 210.042 260.333H26.625C25.8797 260.336 25.161 260.057 24.6126 259.552C24.0641 259.048 23.7263 258.355 23.6667 257.612V56.445C23.6667 55.6604 23.9783 54.9079 24.5331 54.3532C25.0879 53.7984 25.8404 53.4867 26.625 53.4867H41.4167C44.5551 53.4867 47.5649 52.24 49.7841 50.0208C52.0033 47.8016 53.25 44.7917 53.25 41.6533C53.25 38.5149 52.0033 35.5051 49.7841 33.2859C47.5649 31.0667 44.5551 29.82 41.4167 29.82H23.6667C17.3899 29.82 11.3702 32.3135 6.93181 36.7518C2.49345 41.1902 0 47.2099 0 53.4867L0 260.333C0 266.61 2.49345 272.63 6.93181 277.068C11.3702 281.507 17.3899 284 23.6667 284H213C219.277 284 225.297 281.507 229.735 277.068C234.173 272.63 236.667 266.61 236.667 260.333V231.815C236.667 228.677 235.42 225.667 233.201 223.448C230.982 221.228 227.972 219.982 224.833 219.982ZM195.25 53.25H210.042C210.826 53.25 211.579 53.5617 212.134 54.1165C212.688 54.6713 213 55.4237 213 56.2083V65.0833C213 68.2217 214.247 71.2316 216.466 73.4508C218.685 75.67 221.695 76.9167 224.833 76.9167C227.972 76.9167 230.982 75.67 233.201 73.4508C235.42 71.2316 236.667 68.2217 236.667 65.0833V53.25C236.667 46.9732 234.173 40.9535 229.735 36.5151C225.297 32.0768 219.277 29.5833 213 29.5833H195.25C192.112 29.5833 189.102 30.8301 186.883 33.0492C184.663 35.2684 183.417 38.2783 183.417 41.4167C183.417 44.5551 184.663 47.5649 186.883 49.7841C189.102 52.0033 192.112 53.25 195.25 53.25Z" fill="#00B3FF"/>
<path d="M82.8333 65.0833H153.833C158.541 65.0833 163.056 63.2132 166.384 59.8845C169.713 56.5557 171.583 52.0409 171.583 47.3333V41.4167C171.583 36.7091 169.713 32.1943 166.384 28.8655C163.056 25.5368 158.541 23.6667 153.833 23.6667H142C142 17.3899 139.507 11.3702 135.068 6.93181C130.63 2.49345 124.61 0 118.333 0C112.057 0 106.037 2.49345 101.598 6.93181C97.1601 11.3702 94.6666 17.3899 94.6666 23.6667H82.8333C78.1257 23.6667 73.6109 25.5368 70.2822 28.8655C66.9534 32.1943 65.0833 36.7091 65.0833 41.4167V47.3333C65.0833 52.0409 66.9534 56.5557 70.2822 59.8845C73.6109 63.2132 78.1257 65.0833 82.8333 65.0833ZM47.3333 118.333C47.3333 121.472 48.58 124.482 50.7992 126.701C53.0184 128.92 56.0283 130.167 59.1666 130.167H153.833C156.972 130.167 159.982 128.92 162.201 126.701C164.42 124.482 165.667 121.472 165.667 118.333C165.667 115.195 164.42 112.185 162.201 109.966C159.982 107.747 156.972 106.5 153.833 106.5H59.1666C56.0283 106.5 53.0184 107.747 50.7992 109.966C48.58 112.185 47.3333 115.195 47.3333 118.333ZM59.1666 165.667C56.0283 165.667 53.0184 166.913 50.7992 169.133C48.58 171.352 47.3333 174.362 47.3333 177.5C47.3333 180.638 48.58 183.648 50.7992 185.867C53.0184 188.087 56.0283 189.333 59.1666 189.333H112.417C115.555 189.333 118.565 188.087 120.784 185.867C123.003 183.648 124.25 180.638 124.25 177.5C124.25 174.362 123.003 171.352 120.784 169.133C118.565 166.913 115.555 165.667 112.417 165.667H59.1666ZM277.018 97.5067C272.584 93.0987 266.586 90.6246 260.333 90.6246C254.081 90.6246 248.083 93.0987 243.648 97.5067L150.52 190.635C149.939 191.198 149.494 191.886 149.218 192.647L132.415 234.418C131.997 235.496 131.898 236.671 132.128 237.804C132.359 238.937 132.91 239.98 133.717 240.808C134.528 241.641 135.572 242.21 136.711 242.443C137.851 242.675 139.034 242.559 140.107 242.11L181.997 225.425C182.736 225.108 183.416 224.668 184.008 224.123L277.018 130.995C279.219 128.797 280.964 126.187 282.155 123.314C283.346 120.441 283.959 117.361 283.959 114.251C283.959 111.141 283.346 108.061 282.155 105.188C280.964 102.315 279.219 99.7047 277.018 97.5067Z" fill="#00B3FF"/>
</svg>
